0
SECTION
2
HEADER
9
$ACADVER
1
AC1015
0
ENDSEC
0
SECTION
2
ENTITIES
0
LINE
8
WALLS
10
0
20
0
30
0
11
10
21
0
31
0
0
LINE
8
WALLS
10
10
20
0
30
0
11
10
21
8
31
0
0
LINE
8
WALLS
10
10
20
8
30
0
11
0
21
8
31
0
0
LINE
8
WALLS
10
0
20
8
30
0
11
0
21
0
31
0
0
TEXT
8
TEXT
10
4
20
4
30
0
40
0.4
1
10x8m
0
ARC
8
DOORS
10
3.3333333333333335
20
0
30
0
40
1
50
0
51
90
0
TEXT
8
TEXT
10
3.1333333333333333
20
-0.8
30
0
40
0.3
1
D
0
ARC
8
DOORS
10
6.666666666666667
20
0
30
0
40
1
50
0
51
90
0
TEXT
8
TEXT
10
6.466666666666667
20
-0.8
30
0
40
0.3
1
D
0
LINE
8
WINDOWS
10
2.8333333333333335
20
0
30
0
11
3.8333333333333335
21
0
31
0
0
LINE
8
WINDOWS
10
2.8333333333333335
20
0
30
0
11
2.8333333333333335
21
0.1
31
0
0
LINE
8
WINDOWS
10
3.8333333333333335
20
0
30
0
11
3.8333333333333335
21
0.1
31
0
0
LINE
8
WINDOWS
10
6.166666666666667
20
0
30
0
11
7.166666666666667
21
0
31
0
0
LINE
8
WINDOWS
10
6.166666666666667
20
0
30
0
11
6.166666666666667
21
0.1
31
0
0
LINE
8
WINDOWS
10
7.166666666666667
20
0
30
0
11
7.166666666666667
21
0.1
31
0
0
LINE
8
WINDOWS
10
2.8333333333333335
20
8
30
0
11
3.8333333333333335
21
8
31
0
0
LINE
8
WINDOWS
10
2.8333333333333335
20
8
30
0
11
2.8333333333333335
21
7.9
31
0
0
LINE
8
WINDOWS
10
3.8333333333333335
20
8
30
0
11
3.8333333333333335
21
7.9
31
0
0
LINE
8
WINDOWS
10
6.166666666666667
20
8
30
0
11
7.166666666666667
21
8
31
0
0
LINE
8
WINDOWS
10
6.166666666666667
20
8
30
0
11
6.166666666666667
21
7.9
31
0
0
LINE
8
WINDOWS
10
7.166666666666667
20
8
30
0
11
7.166666666666667
21
7.9
31
0
0
ENDSEC
0
EOF
